<svg xmlns="http://www.w3.org/2000/svg" width="106.885" height="106.885" viewBox="0 0 106.885 106.885">
  <path id="check-circle" d="M61.443,8a53.443,53.443,0,1,0,53.443,53.443A53.443,53.443,0,0,0,61.443,8Zm0,99.99A46.547,46.547,0,1,1,107.99,61.443,46.544,46.544,0,0,1,61.443,107.99ZM91.963,48.737,53.071,87.317a2.586,2.586,0,0,1-3.657-.015L30.908,68.647a2.586,2.586,0,0,1,.015-3.657l1.836-1.821a2.586,2.586,0,0,1,3.657.015L51.279,78.168,86.5,43.229a2.586,2.586,0,0,1,3.657.015l1.821,1.836a2.586,2.586,0,0,1-.015,3.657Z" transform="translate(-8 -8)" fill="#fff"/>
</svg>
