<svg xmlns="http://www.w3.org/2000/svg" width="23.177" height="25.284" viewBox="0 0 23.177 25.284">
  <g id="gas-station" transform="translate(-16)">
    <g id="Group_1067" data-name="Group 1067" transform="translate(16)">
      <path id="Path_1377" data-name="Path 1377" d="M38.152,5.942l.021-.021L32.94.7,31.451,2.191l2.964,2.964a3.507,3.507,0,0,0,1.25,6.785,3.47,3.47,0,0,0,1.4-.295V21.772a1.4,1.4,0,1,1-2.809,0V15.451a2.809,2.809,0,0,0-2.809-2.809h-1.4V2.809A2.809,2.809,0,0,0,27.237,0H18.809A2.809,2.809,0,0,0,16,2.809V25.284H30.047V14.749h2.107v7.023a3.512,3.512,0,0,0,7.023,0V8.428A3.527,3.527,0,0,0,38.152,5.942ZM27.237,9.833H18.809V2.809h8.428Zm8.428,0a1.4,1.4,0,1,1,1.4-1.4A1.409,1.409,0,0,1,35.665,9.833Z" transform="translate(-16)"/>
    </g>
  </g>
</svg>
