<svg xmlns="http://www.w3.org/2000/svg" width="113.099" height="25.284" viewBox="0 0 113.099 25.284">
  <g id="Group_1068" data-name="Group 1068" transform="translate(-115 -631)">
    <path id="Path_1381" data-name="Path 1381" d="M-80.471,0h-1.245V-10.708h5.969V-9.6h-4.724v3.918h4.438v1.106h-4.438Zm14.583-10.708v6.929A3.774,3.774,0,0,1-66.995-.9,4.242,4.242,0,0,1-70.034.146,4.054,4.054,0,0,1-73.026-.908a3.912,3.912,0,0,1-1.058-2.9v-6.9h1.245v6.987a2.752,2.752,0,0,0,.732,2.058,2.955,2.955,0,0,0,2.153.718,2.85,2.85,0,0,0,2.087-.721,2.775,2.775,0,0,0,.732-2.069v-6.973ZM-57.085,0h-5.969V-10.708h5.969V-9.6h-4.724v3.45h4.438v1.1h-4.438v3.94h4.724Zm2.373,0V-10.708h1.245v9.58h4.724V0Zm16.421,0-3.633-9.492h-.059q.1,1.128.1,2.681V0h-1.15V-10.708h1.875l3.391,8.833h.059l3.42-8.833h1.86V0h-1.245V-6.9q0-1.187.1-2.578h-.059L-37.288,0Zm18.1-5.369a5.9,5.9,0,0,1-1.3,4.043A4.57,4.57,0,0,1-25.107.146,4.628,4.628,0,0,1-28.759-1.3a5.943,5.943,0,0,1-1.285-4.083,5.869,5.869,0,0,1,1.289-4.054,4.661,4.661,0,0,1,3.662-1.439,4.562,4.562,0,0,1,3.6,1.465A5.889,5.889,0,0,1-20.193-5.369Zm-8.533,0a5.082,5.082,0,0,0,.927,3.3A3.287,3.287,0,0,0-25.107-.945a3.256,3.256,0,0,0,2.688-1.121,5.153,5.153,0,0,0,.908-3.3,5.112,5.112,0,0,0-.9-3.278,3.241,3.241,0,0,0-2.677-1.117A3.3,3.3,0,0,0-27.8-8.639,5.03,5.03,0,0,0-28.726-5.369Zm19.468-.088A5.406,5.406,0,0,1-10.7-1.4,5.694,5.694,0,0,1-14.839,0h-2.966V-10.708h3.281a5.248,5.248,0,0,1,3.882,1.384A5.228,5.228,0,0,1-9.258-5.457Zm-1.318.044a4.311,4.311,0,0,0-1.051-3.157,4.212,4.212,0,0,0-3.124-1.062H-16.56v8.555h1.516A4.61,4.61,0,0,0-11.7-2.172,4.335,4.335,0,0,0-10.576-5.413ZM-.9,0H-6.87V-10.708H-.9V-9.6H-5.625v3.45h4.438v1.1H-5.625v3.94H-.9Z" transform="translate(229 649)" fill="#373a36"/>
    <g id="gas-station" transform="translate(99 631)">
      <g id="Group_1067" data-name="Group 1067" transform="translate(16)">
        <path id="Path_1377" data-name="Path 1377" d="M38.152,5.942l.021-.021L32.94.7,31.451,2.191l2.964,2.964a3.507,3.507,0,0,0,1.25,6.785,3.47,3.47,0,0,0,1.4-.295V21.772a1.4,1.4,0,1,1-2.809,0V15.451a2.809,2.809,0,0,0-2.809-2.809h-1.4V2.809A2.809,2.809,0,0,0,27.237,0H18.809A2.809,2.809,0,0,0,16,2.809V25.284H30.047V14.749h2.107v7.023a3.512,3.512,0,0,0,7.023,0V8.428A3.527,3.527,0,0,0,38.152,5.942ZM27.237,9.833H18.809V2.809h8.428Zm8.428,0a1.4,1.4,0,1,1,1.4-1.4A1.409,1.409,0,0,1,35.665,9.833Z" transform="translate(-16)"/>
      </g>
    </g>
  </g>
</svg>
