<svg xmlns="http://www.w3.org/2000/svg" width="293.056" height="56.979" viewBox="0 0 293.056 56.979">
  <g id="Group_936" data-name="Group 936" transform="translate(-0.104 -0.1)">
    <g id="Group_933" data-name="Group 933" transform="translate(102.964 47.405)">
      <path id="Path_1340" data-name="Path 1340" d="M121.68,62.841c-.089.089-.089.089-.266.089h-3.639a3.31,3.31,0,0,1-1.065-.177.8.8,0,0,1-.533-.533,1.672,1.672,0,0,1-.178-.71,3.905,3.905,0,0,1,.178-.888L117.42,56.1a3.709,3.709,0,0,1,.355-.888,2.1,2.1,0,0,1,.533-.8,3.1,3.1,0,0,1,.8-.533,3.939,3.939,0,0,1,1.154-.178H123.9c.089,0,.178,0,.178.089v.266l-.178.8c0,.089-.089.178-.089.266a.389.389,0,0,1-.266.089H120.26c-.355,0-.621.089-.71.266a1.43,1.43,0,0,0-.355.621l-.355,1.42h3.905c.089,0,.178,0,.178.089v.266l-.178.71c0,.089-.089.178-.089.266s-.089.089-.178.089h-3.905l-.533,1.953c-.089.266-.089.533.089.621.089.178.266.178.621.178h3.55c.089,0,.178,0,.178.089v.266l-.178.8C121.769,62.664,121.769,62.753,121.68,62.841Z" transform="translate(-116 -53.434)" fill="#b2b3b3"/>
      <path id="Path_1341" data-name="Path 1341" d="M133.456,56.54h0l-1.243,1.775-1.953,2.929a2.428,2.428,0,0,1-.355.444c-.089.089-.266.089-.533.089h-.533a.665.665,0,0,1-.444-.089c-.089-.089-.089-.266-.177-.444l-.355-2.751-.266-1.775h-.089l-1.6,5.946c0,.089-.089.178-.089.266-.089,0-.089.089-.266.089h-.888c-.089,0-.178,0-.178-.089q-.133,0,0-.266l2.13-8.165a1.43,1.43,0,0,1,.355-.621,1.283,1.283,0,0,1,.621-.178h.444a.665.665,0,0,1,.444.089.678.678,0,0,1,.178.444l.533,3.905.266,2.13h.089l1.331-2.13,2.485-3.816a1.047,1.047,0,0,1,.444-.444,1.126,1.126,0,0,1,.533-.089h.533a.75.75,0,0,1,.533.178.728.728,0,0,1,0,.621l-2.13,8.165c0,.089-.089.178-.089.266-.089,0-.089.089-.266.089h-.887c-.089,0-.178,0-.178-.089q-.133,0,0-.266Z" transform="translate(-116.948 -53.434)" fill="#b2b3b3"/>
      <path id="Path_1342" data-name="Path 1342" d="M139.388,59.38l-.888,3.284c0,.089-.089.178-.089.266a.389.389,0,0,1-.266.089h-.976c-.089,0-.177,0-.177-.089q-.133,0,0-.266l2.219-8.254a1.445,1.445,0,0,1,.266-.533,1.034,1.034,0,0,1,.621-.178h3.018a3.31,3.31,0,0,1,1.065.178,1.38,1.38,0,0,1,.71.533,3.6,3.6,0,0,1,.444.8,2.164,2.164,0,0,1,0,1.065,2.314,2.314,0,0,1-.266.976,6.617,6.617,0,0,1-.621,1.065,2.7,2.7,0,0,1-1.154.8,4.828,4.828,0,0,1-1.775.355h-2.13Zm1.154-4.26-.8,2.929h1.864a2.258,2.258,0,0,0,1.42-.444,2.085,2.085,0,0,0,.621-1.243v-.444c0-.177-.089-.266-.177-.444a1.226,1.226,0,0,0-.355-.266,1.526,1.526,0,0,0-.71-.089Z" transform="translate(-118.354 -53.434)" fill="#b2b3b3"/>
      <path id="Path_1343" data-name="Path 1343" d="M152.511,53.5a2.77,2.77,0,0,1,2.4.976,3.99,3.99,0,0,1,.533,2.663,6.846,6.846,0,0,1-.621,2.308,5.068,5.068,0,0,1-1.154,1.864,4.338,4.338,0,0,1-1.6,1.243,4.931,4.931,0,0,1-2.041.444,2.962,2.962,0,0,1-2.4-.888,3.99,3.99,0,0,1-.533-2.663A7.821,7.821,0,0,1,149.05,55.1a4.879,4.879,0,0,1,1.6-1.154A3.6,3.6,0,0,1,152.511,53.5Zm-.355,1.42a2.139,2.139,0,0,0-1.331.355,5.087,5.087,0,0,0-.976.976,7.077,7.077,0,0,0-.71,1.42,10.318,10.318,0,0,0-.355,1.6,2.958,2.958,0,0,0,0,.888,1.008,1.008,0,0,0,.266.71.909.909,0,0,0,.533.444,2.626,2.626,0,0,0,.888.178,2.139,2.139,0,0,0,1.331-.355,10.643,10.643,0,0,0,1.065-.976,7.074,7.074,0,0,0,.71-1.42,10.32,10.32,0,0,0,.355-1.6v-.888a1.008,1.008,0,0,0-.266-.71,1.3,1.3,0,0,0-.533-.444A2.74,2.74,0,0,0,152.156,54.92Z" transform="translate(-119.495 -53.411)" fill="#b2b3b3"/>
      <path id="Path_1344" data-name="Path 1344" d="M163.814,55.564l-1.065,2.219-2.13,4.438a1.365,1.365,0,0,1-.355.533.75.75,0,0,1-.533.177h-.621a1.126,1.126,0,0,1-.533-.089.75.75,0,0,1-.177-.533l.444-8.431c0-.178.089-.178.178-.178h1.42a.31.31,0,0,1,.089.178l-.444,4.793-.177,2.219H160l.976-2.219,2.041-4.26a1.365,1.365,0,0,1,.355-.533,1.283,1.283,0,0,1,.621-.178h.621a.521.521,0,0,1,.444.178c.089.089.089.266.089.533l-.266,4.349-.178,2.219h.089l.976-2.219,2.041-4.7c.089-.178.178-.266.355-.266h1.331c.089,0,.177.089.089.178L165.589,62.4a1.365,1.365,0,0,1-.355.533,1.126,1.126,0,0,1-.533.089h-.621a.678.678,0,0,1-.444-.178c-.089-.089-.089-.266-.089-.533l.266-4.438V55.564Z" transform="translate(-120.769 -53.434)" fill="#b2b3b3"/>
      <path id="Path_1345" data-name="Path 1345" d="M176.369,62.841c-.089.089-.089.089-.266.089h-3.728a3.31,3.31,0,0,1-1.065-.177.8.8,0,0,1-.533-.533,1.672,1.672,0,0,1-.178-.71,3.905,3.905,0,0,1,.178-.888L172.02,56.1a3.709,3.709,0,0,1,.355-.888,2.1,2.1,0,0,1,.533-.8,3.1,3.1,0,0,1,.8-.533,3.939,3.939,0,0,1,1.154-.178H178.5c.089,0,.178,0,.178.089v.266l-.178.8c0,.089-.089.178-.089.266a.389.389,0,0,1-.266.089H174.86c-.355,0-.621.089-.71.266a1.43,1.43,0,0,0-.355.621l-.355,1.42h3.905c.089,0,.177,0,.177.089v.266l-.177.71c0,.089-.089.178-.089.266s-.089.089-.177.089h-3.905l-.533,1.953c-.089.266-.089.533.089.621a1.034,1.034,0,0,0,.621.178h3.55c.089,0,.178,0,.178.089v.266l-.178.8C176.458,62.664,176.369,62.753,176.369,62.841Z" transform="translate(-122.141 -53.434)" fill="#b2b3b3"/>
      <path id="Path_1346" data-name="Path 1346" d="M180.8,62.664c0,.089-.089.178-.089.266-.089,0-.089.089-.266.089h-.976c-.089,0-.177,0-.177-.089,0,0-.089-.089,0-.266l2.219-8.254a1.445,1.445,0,0,1,.266-.533,1.034,1.034,0,0,1,.621-.178h3.018a2.169,2.169,0,0,1,1.775.621,2.126,2.126,0,0,1,.444,1.686,3.255,3.255,0,0,1-.71,1.686,3.379,3.379,0,0,1-1.42.976v.089a.778.778,0,0,1,.621.533,2.591,2.591,0,0,1,.178.8v2.929c0,.089-.089.089-.178.089H184.8c-.089,0-.089-.089-.089-.178V60.445a1.106,1.106,0,0,0-.355-.976,1.594,1.594,0,0,0-.976-.266h-1.686Zm1.243-4.97h1.864a2.457,2.457,0,0,0,.8-.089c.178-.089.444-.178.533-.355a1.132,1.132,0,0,0,.355-.533,1.283,1.283,0,0,0,.177-.621v-.355a.673.673,0,0,0-.177-.355,1.226,1.226,0,0,0-.355-.266,1.316,1.316,0,0,0-.621-.089h-1.953Z" transform="translate(-123.115 -53.434)" fill="#b2b3b3"/>
      <path id="Path_1347" data-name="Path 1347" d="M190.5,62.819a.389.389,0,0,1-.266.089h-.976a.326.326,0,0,1-.266-.089s-.089-.089,0-.266l2.308-8.7c0-.089.089-.178.177-.266.089,0,.178-.089.266-.089h.976c.089,0,.177,0,.177.089v.266l-2.308,8.7C190.593,62.73,190.593,62.819,190.5,62.819Z" transform="translate(-124.206 -53.411)" fill="#b2b3b3"/>
      <path id="Path_1348" data-name="Path 1348" d="M196.879,55.9,195.1,62.641c0,.089-.089.178-.089.266a.389.389,0,0,1-.266.089h-.976c-.089,0-.178,0-.178-.089,0,0-.089-.089,0-.266l2.13-8.165a1.431,1.431,0,0,1,.355-.621,1.283,1.283,0,0,1,.621-.178h.444a.665.665,0,0,1,.444.089,1.94,1.94,0,0,1,.266.444l1.42,4.526.533,1.864h.089l1.775-6.745c0-.089.089-.178.089-.266.089,0,.178-.089.266-.089H203c.089,0,.178,0,.178.089v.266l-2.13,8.165a4.331,4.331,0,0,1-.266.621.749.749,0,0,1-.621.177h-.71a.31.31,0,0,1-.178-.089c-.089,0-.089-.089-.089-.177s-.089-.178-.089-.266l-1.42-4.7-.8-1.686Z" transform="translate(-124.723 -53.411)" fill="#b2b3b3"/>
      <path id="Path_1349" data-name="Path 1349" d="M210.943,58.281c0-.089.089-.178.178-.266.089,0,.177-.089.266-.089h.888c.089,0,.178,0,.178.089v.266l-.888,3.55c0,.089-.089.178-.089.266-.089.089-.089.178-.266.178a2.658,2.658,0,0,1-.888.355,2.626,2.626,0,0,1-.888.178c-.355,0-.533.089-.8.089H208.1a3.15,3.15,0,0,1-2.574-.976A3.915,3.915,0,0,1,205,59.08a9.469,9.469,0,0,1,.621-2.4,5.128,5.128,0,0,1,1.154-1.775,4.108,4.108,0,0,1,1.6-1.154,4.635,4.635,0,0,1,1.864-.355,6.288,6.288,0,0,1,1.243.089,2.982,2.982,0,0,1,1.243.444.087.087,0,0,1,.089.089.326.326,0,0,1-.089.266l-.444.71c-.089.089-.089.178-.178.178h-.178a3.381,3.381,0,0,0-.888-.266,3.33,3.33,0,0,0-.888-.089,2.42,2.42,0,0,0-1.42.355,2.821,2.821,0,0,0-1.065.976,6.339,6.339,0,0,0-.71,1.331,10.315,10.315,0,0,0-.355,1.6,3.6,3.6,0,0,0,0,.976,1.008,1.008,0,0,0,.266.71,1.925,1.925,0,0,0,.621.533,3.191,3.191,0,0,0,.976.178h.621a.8.8,0,0,0,.444-.089,3.845,3.845,0,0,0,.444-.089Z" transform="translate(-126.007 -53.4)" fill="#b2b3b3"/>
      <path id="Path_1350" data-name="Path 1350" d="M221.491,59.38l-.887,3.284c0,.089-.089.178-.089.266a.389.389,0,0,1-.266.089h-.976c-.089,0-.178,0-.178-.089,0,0-.089-.089,0-.266l2.219-8.254a1.445,1.445,0,0,1,.266-.533,1.034,1.034,0,0,1,.621-.178h3.018a3.31,3.31,0,0,1,1.065.178,1.38,1.38,0,0,1,.71.533,3.6,3.6,0,0,1,.444.8,2.163,2.163,0,0,1,0,1.065,2.314,2.314,0,0,1-.266.976,6.621,6.621,0,0,1-.621,1.065,2.7,2.7,0,0,1-1.154.8,4.828,4.828,0,0,1-1.775.355h-2.13Zm1.154-4.26-.8,2.929h1.864a2.258,2.258,0,0,0,1.42-.444,2.085,2.085,0,0,0,.621-1.243v-.444c0-.177-.089-.266-.178-.444a1.225,1.225,0,0,0-.355-.266,1.526,1.526,0,0,0-.71-.089Z" transform="translate(-127.591 -53.434)" fill="#b2b3b3"/>
      <path id="Path_1351" data-name="Path 1351" d="M234.769,62.841c-.089.089-.089.089-.266.089h-3.728a3.311,3.311,0,0,1-1.065-.177.8.8,0,0,1-.532-.533,1.672,1.672,0,0,1-.178-.71,3.906,3.906,0,0,1,.178-.888L230.42,56.1a3.71,3.71,0,0,1,.355-.888,2.1,2.1,0,0,1,.533-.8,3.1,3.1,0,0,1,.8-.533,3.939,3.939,0,0,1,1.154-.178H236.9c.089,0,.177,0,.177.089v.266l-.177.8c0,.089-.089.178-.089.266a.389.389,0,0,1-.266.089H233.26c-.355,0-.621.089-.71.266a1.43,1.43,0,0,0-.355.621l-.355,1.42h3.905c.089,0,.178,0,.178.089v.266l-.178.71c0,.089-.089.178-.089.266s-.089.089-.178.089h-3.905l-.533,1.953c-.089.266-.089.533.089.621a1.034,1.034,0,0,0,.621.178h3.55c.089,0,.177,0,.177.089v.266l-.177.8C234.858,62.664,234.858,62.753,234.769,62.841Z" transform="translate(-128.71 -53.434)" fill="#b2b3b3"/>
      <path id="Path_1352" data-name="Path 1352" d="M243.611,53.5a2.77,2.77,0,0,1,2.4.976,3.991,3.991,0,0,1,.533,2.663,6.846,6.846,0,0,1-.621,2.308,5.067,5.067,0,0,1-1.154,1.864,4.338,4.338,0,0,1-1.6,1.243,4.931,4.931,0,0,1-2.041.444,2.962,2.962,0,0,1-2.4-.888,3.991,3.991,0,0,1-.533-2.663A7.821,7.821,0,0,1,240.15,55.1a4.879,4.879,0,0,1,1.6-1.154A3.6,3.6,0,0,1,243.611,53.5Zm-.266,1.42a2.139,2.139,0,0,0-1.331.355,5.085,5.085,0,0,0-.976.976,7.075,7.075,0,0,0-.71,1.42,10.32,10.32,0,0,0-.355,1.6,2.959,2.959,0,0,0,0,.888,1.008,1.008,0,0,0,.266.71.909.909,0,0,0,.533.444,2.626,2.626,0,0,0,.888.178,2.139,2.139,0,0,0,1.331-.355,10.635,10.635,0,0,0,1.065-.976,7.076,7.076,0,0,0,.71-1.42,10.313,10.313,0,0,0,.355-1.6v-.888a1.008,1.008,0,0,0-.266-.71,1.3,1.3,0,0,0-.533-.444A3.775,3.775,0,0,0,243.345,54.92Z" transform="translate(-129.742 -53.411)" fill="#b2b3b3"/>
      <path id="Path_1353" data-name="Path 1353" d="M250.791,59.38l-.888,3.284c0,.089-.089.178-.089.266a.389.389,0,0,1-.266.089h-.976c-.089,0-.177,0-.177-.089,0,0-.089-.089,0-.266l2.219-8.254a1.444,1.444,0,0,1,.266-.533,1.034,1.034,0,0,1,.621-.178h3.018a3.31,3.31,0,0,1,1.065.178,1.38,1.38,0,0,1,.71.533,3.6,3.6,0,0,1,.444.8,2.163,2.163,0,0,1,0,1.065,2.314,2.314,0,0,1-.266.976,6.62,6.62,0,0,1-.621,1.065,2.7,2.7,0,0,1-1.154.8,4.828,4.828,0,0,1-1.775.355h-2.13Zm1.154-4.26-.8,2.929h1.864a2.258,2.258,0,0,0,1.42-.444,2.084,2.084,0,0,0,.621-1.243v-.444c0-.177-.089-.266-.177-.444a1.225,1.225,0,0,0-.355-.266,1.526,1.526,0,0,0-.71-.089Z" transform="translate(-130.887 -53.434)" fill="#b2b3b3"/>
      <path id="Path_1354" data-name="Path 1354" d="M259.01,62.73a.8.8,0,0,1-.533-.533,1.671,1.671,0,0,1-.178-.71,3.33,3.33,0,0,1,.089-.888l1.775-6.745c0-.089.089-.178.089-.266.089,0,.177-.089.266-.089h.976a.326.326,0,0,1,.266.089v.266l-1.775,6.568c-.089.355-.089.533.089.71.089.178.355.178.621.178h3.461c.089,0,.178,0,.178.089v.178l-.266.888a.314.314,0,0,1-.266.266h-3.639A1.67,1.67,0,0,1,259.01,62.73Z" transform="translate(-132.005 -53.411)" fill="#b2b3b3"/>
      <path id="Path_1355" data-name="Path 1355" d="M272.669,62.841c-.089.089-.089.089-.266.089h-3.728a3.311,3.311,0,0,1-1.065-.177.8.8,0,0,1-.532-.533,1.671,1.671,0,0,1-.178-.71,3.9,3.9,0,0,1,.178-.888L268.32,56.1a3.709,3.709,0,0,1,.355-.888,2.1,2.1,0,0,1,.533-.8,3.1,3.1,0,0,1,.8-.533,3.938,3.938,0,0,1,1.154-.178H274.8c.089,0,.178,0,.178.089v.266l-.178.8c0,.089-.089.178-.089.266a.389.389,0,0,1-.266.089H271.16c-.355,0-.621.089-.71.266a1.43,1.43,0,0,0-.355.621l-.355,1.42h3.905c.089,0,.178,0,.178.089v.266l-.178.71c0,.089-.089.178-.089.266s-.089.089-.177.089h-3.905l-.533,1.953c-.089.266-.089.533.089.621a1.034,1.034,0,0,0,.621.178h3.55c.089,0,.177,0,.177.089v.266l-.177.8C272.758,62.664,272.669,62.753,272.669,62.841Z" transform="translate(-132.973 -53.434)" fill="#b2b3b3"/>
    </g>
    <path id="Path_1356" data-name="Path 1356" d="M95.019,23.945c-3.461-4.349-8.165-6.479-13.135-8.076A45.287,45.287,0,0,0,73.541,14c-2.485-.266-4.97-.533-7.455-.71s-4.881-.266-7.366-.266c-2.574,0-5.236.178-7.81.355a60.08,60.08,0,0,0-15.8,3.106,22.814,22.814,0,0,0-6.479,3.461A12.612,12.612,0,0,0,26.5,22.17a4.815,4.815,0,0,0,.266,5.946A15.448,15.448,0,0,0,30.5,31.577c.178.089.8.444.8.444-.533-.089-1.154-.266-1.686-.355a36.191,36.191,0,0,1-10.384-4.083,15.159,15.159,0,0,1-4.438-3.816c-2.4-3.106-2.13-6.568.178-9.5A19.333,19.333,0,0,1,21.8,9.123,42.331,42.331,0,0,1,33.425,5.4c2.574-.444,5.236-.8,7.9-1.154A76.9,76.9,0,0,1,54.1,3.887,63.779,63.779,0,0,1,77.446,8.679a38.3,38.3,0,0,1,13.135,9.053A21.64,21.64,0,0,1,94.576,23.5C94.842,23.5,94.931,23.678,95.019,23.945Z" transform="translate(-1.463 -0.414)" fill="#62bc46"/>
    <path id="Path_1357" data-name="Path 1357" d="M14.922,11.594a10.922,10.922,0,0,0-4.349,5.414,8.581,8.581,0,0,0,1.6,8.786,19.273,19.273,0,0,0,6.479,4.793,51.9,51.9,0,0,0,14.112,4.26A71.6,71.6,0,0,0,44.3,36a73.857,73.857,0,0,0,11.715-.355A37.229,37.229,0,0,0,65.333,33.6a12.953,12.953,0,0,0,4.438-2.485,5.3,5.3,0,0,0,1.686-2.663,4.026,4.026,0,0,0,.177-.71c.621,3.994-.8,7.011-3.55,9.585a23.086,23.086,0,0,1-9.674,4.793,60.2,60.2,0,0,1-8.875,1.686,101.011,101.011,0,0,1-14.644.533c-3.018-.178-6.035-.355-9.053-.8a44.9,44.9,0,0,1-17.75-6.035,17.871,17.871,0,0,1-6.3-6.035,10,10,0,0,1,.444-11.715,20.979,20.979,0,0,1,5.325-5.148A49.591,49.591,0,0,1,20.691,8.4C20.514,8.221,16.7,10.262,14.922,11.594Z" transform="translate(0 -0.932)" fill="#373a36"/>
    <path id="Path_1358" data-name="Path 1358" d="M52.019,16.476c1.065-.178,2.308-.444,3.55-.533,2.4-.178,4.793-.355,7.189-.444,2.308,0,4.526.178,6.834.266a39.063,39.063,0,0,1,4.526.444c2.13.266,4.349.71,6.479,1.065a46.473,46.473,0,0,1,9.674,2.84,17.889,17.889,0,0,1,6.035,3.816c2.663,2.663,2.929,5.858.71,8.964a18.1,18.1,0,0,1-6.124,5.148,57.481,57.481,0,0,1-13.49,5.5c-3.018.8-6.124,1.509-9.23,2.13-2.751.533-5.591.71-8.343,1.065a52.4,52.4,0,0,1-8.343.178,11.1,11.1,0,0,1-1.686-.266c1.509-.178,3.018-.266,4.526-.533,2.4-.355,4.793-.8,7.1-1.331a37.64,37.64,0,0,0,11.36-4.349c2.485-1.509,4.793-3.373,5.858-6.213a9.54,9.54,0,0,0-1.42-10.3c-1.775-2.219-4.26-3.461-6.834-4.526a35.623,35.623,0,0,0-8.964-2.13C58.231,16.92,55.125,16.743,52.019,16.476Z" transform="translate(-5.59 -1.732)" fill="#99ca3c"/>
    <g id="Group_934" data-name="Group 934" transform="translate(104.46 0.1)">
      <path id="Path_1359" data-name="Path 1359" d="M122.935,42.124h-4.26c-.71,0-1.065-.178-.976-.976L121.6,13.28c.089-.8.444-.976,1.154-.976h4.26c.888,0,1.065.089.976.976l-3.905,27.868C124,42.036,123.733,42.124,122.935,42.124Zm7.278-38.164a4.841,4.841,0,0,1-4.615,4.7,3.316,3.316,0,0,1-3.373-3.373A4.8,4.8,0,0,1,126.84.5,3.286,3.286,0,0,1,130.212,3.961Z" transform="translate(-117.685 -0.145)" fill="#373a36"/>
      <path id="Path_1360" data-name="Path 1360" d="M143.972,19.035l-3.284,23.519c-.089.888-.355.976-1.154.976h-4.26c-.71,0-1.065-.178-.976-.976l3.373-24.318c.355-2.751,1.686-4.26,4.349-4.7a56.519,56.519,0,0,1,7.1-.533c9.763,0,13.757,3.994,12.248,14.555l-2.13,15c-.089.888-.355.976-1.154.976h-4.26c-.71,0-1.065-.178-.976-.976l2.13-15.088c.8-5.946-.266-8.786-6.745-8.786C147.434,18.769,146.014,18.769,143.972,19.035Z" transform="translate(-119.552 -1.551)" fill="#373a36"/>
      <path id="Path_1361" data-name="Path 1361" d="M178.707,41.459a1.645,1.645,0,0,1-1.154,1.42l-4.7,1.6c-.71.266-1.154-.089-1.065-.976L175.6,17.407h-3.994c-.71,0-.8-.355-.71-.888l.266-2.13c.089-.71.266-.976,1.065-1.154l4.083-.976.355-2.308C177.375,4.626,180.3.1,189.091.1a34.517,34.517,0,0,1,8.786,1.243c.533.178.533.533.355,1.154l-.8,3.284c-.178.621-.533.71-1.154.621a43.388,43.388,0,0,0-6.834-.8c-4.793,0-6.035,2.219-6.3,4.526l-.355,2.308h16.153c.888,0,1.065.266.888.976l-3.905,27.868c-.089.888-.355.976-1.154.976h-4.349c-.71,0-1.065-.178-.888-.976l3.284-23.7H181.99Z" transform="translate(-123.667 -0.1)" fill="#373a36"/>
      <path id="Path_1362" data-name="Path 1362" d="M216.972,19.035l-3.284,23.519c-.089.888-.355.976-1.154.976h-4.26c-.71,0-1.065-.178-.976-.976l3.373-24.318c.355-2.751,1.686-4.26,4.349-4.7a56.519,56.519,0,0,1,7.1-.533c9.763,0,13.757,3.994,12.248,14.555l-2.13,15c-.089.888-.355.976-1.154.976h-4.26c-.71,0-1.065-.178-.976-.976l2.13-15.088c.8-5.946-.266-8.786-6.745-8.786C220.434,18.769,219.014,18.769,216.972,19.035Z" transform="translate(-127.763 -1.551)" fill="#373a36"/>
      <path id="Path_1363" data-name="Path 1363" d="M249.835,42.124h-4.26c-.71,0-1.065-.178-.976-.976L248.5,13.28c.089-.8.444-.976,1.154-.976h4.26c.888,0,1.065.089.976.976l-3.905,27.868C250.9,42.036,250.722,42.124,249.835,42.124Zm7.278-38.164a4.841,4.841,0,0,1-4.615,4.7,3.316,3.316,0,0,1-3.373-3.373A4.8,4.8,0,0,1,253.74.5,3.238,3.238,0,0,1,257.112,3.961Z" transform="translate(-131.958 -0.145)" fill="#373a36"/>
      <path id="Path_1364" data-name="Path 1364" d="M278.424,42.417a25.022,25.022,0,0,1-7.011.888c-6.035,0-7.988-2.574-7.189-8.076l2.485-17.307H262.8c-.888,0-.8-.355-.71-.976l.355-2.308c.089-.71.266-.888,1.065-1.065l4.349-.976,1.509-5.325a1.7,1.7,0,0,1,1.331-1.42L274.075,4.7c.533-.089.976.089.888.888L273.9,12.774h6.39c.8,0,.887.355.8.888l-.444,3.2c-.089.71-.266.976-1.065.976H273.1l-2.308,16.508c-.355,2.4.533,3.2,2.84,3.2,1.065,0,3.018-.266,4.083-.355.71-.089.888.178.888.71l.533,3.55C279.134,41.8,279.222,42.062,278.424,42.417Z" transform="translate(-133.921 -0.615)" fill="#373a36"/>
      <path id="Path_1365" data-name="Path 1365" d="M313.352,13.8c.533,0,.71.266.444.71L298.087,48.857c-2.4,5.059-4.97,7.1-9.674,7.1-2.308,0-2.663,0-4.793-.089-.976-.178-1.331.355-1.42-.355l.71-4.881c.089-.355.266-.266,1.242-.266h3.816c2.485,0,3.55-.976,4.793-3.816L294.448,43h-1.065c-1.331,0-2.041-.178-2.485-2.308L286.371,14.6c-.089-.533.178-.8.621-.8h4.793c.71,0,.976.178,1.065.71L294.8,27.557l1.42,10.3h.355L301.1,27.468,306.873,14.6c.266-.533.444-.8,1.154-.8h5.325Z" transform="translate(-136.189 -1.641)" fill="#373a36"/>
    </g>
    <g id="Group_935" data-name="Group 935" transform="translate(283.93 12.437)">
      <path id="Path_1366" data-name="Path 1366" d="M323.539,14.8h-1.331l-.621,4.171a.191.191,0,0,1-.178.178h-.533c-.089,0-.177,0-.177-.178l.621-4.171h-1.331c-.089,0-.089,0-.089-.089l.089-.533c0-.089,0-.178.177-.178h3.461c.089,0,.089,0,.089.178l-.089.533C323.716,14.71,323.716,14.8,323.539,14.8Z" transform="translate(-319.9 -14)" fill="#b2b3b3"/>
      <path id="Path_1367" data-name="Path 1367" d="M328.726,15.609h0l-.533.976-.888,1.6c-.089.266-.178.355-.444.355H326.6c-.266,0-.266-.089-.355-.355l-.444-1.509-.266-.976h0l-.444,3.284a.191.191,0,0,1-.178.178h-.533c-.089,0-.178,0-.178-.178l.621-4.438a.419.419,0,0,1,.444-.444h.266c.266,0,.355.089.355.355l.533,2.13.266,1.154h0l.621-1.154,1.154-2.13c.177-.266.266-.355.533-.355h.266c.266,0,.355.089.355.444l-.621,4.438a.191.191,0,0,1-.178.178h-.533c-.089,0-.178,0-.178-.178Z" transform="translate(-320.384 -14.011)" fill="#b2b3b3"/>
    </g>
  </g>
</svg>
