<svg xmlns="http://www.w3.org/2000/svg" width="293.056" height="56.979" viewBox="0 0 293.056 56.979">
  <g data-name="Group 936">
    <g data-name="Group 933" fill="#b2b3b3">
      <path data-name="Path 1340" d="M108.54 56.712c-.089.089-.089.089-.266.089h-3.639a3.3 3.3 0 0 1-1.065-.177.8.8 0 0 1-.533-.533 1.7 1.7 0 0 1-.178-.71 4 4 0 0 1 .178-.888l1.243-4.522a3.7 3.7 0 0 1 .355-.888 2.1 2.1 0 0 1 .533-.8 3.1 3.1 0 0 1 .8-.533 4 4 0 0 1 1.154-.178h3.638c.089 0 .178 0 .178.089v.266l-.178.8c0 .089-.089.178-.089.266a.4.4 0 0 1-.266.089h-3.285c-.355 0-.621.089-.71.266a1.43 1.43 0 0 0-.355.621l-.355 1.42h3.905c.089 0 .178 0 .178.089v.266l-.178.71c0 .089-.089.178-.089.266s-.089.089-.178.089h-3.905l-.533 1.953c-.089.266-.089.533.089.621.089.178.266.178.621.178h3.55c.089 0 .178 0 .178.089v.266l-.178.8c-.531-.181-.531-.092-.62-.004"/>
      <path data-name="Path 1341" d="m119.368 50.411-1.243 1.775-1.953 2.929a2.4 2.4 0 0 1-.355.444c-.089.089-.266.089-.533.089h-.533a.67.67 0 0 1-.444-.089c-.089-.089-.089-.266-.177-.444l-.355-2.751-.266-1.775h-.089l-1.6 5.946c0 .089-.089.178-.089.266-.089 0-.089.089-.266.089h-.888c-.089 0-.178 0-.178-.089q-.133 0 0-.266l2.13-8.165a1.43 1.43 0 0 1 .355-.621 1.3 1.3 0 0 1 .621-.178h.444a.67.67 0 0 1 .444.089.68.68 0 0 1 .178.444l.533 3.905.266 2.13h.089l1.331-2.13 2.485-3.816a1.05 1.05 0 0 1 .444-.444 1.1 1.1 0 0 1 .533-.089h.533a.75.75 0 0 1 .533.178.73.73 0 0 1 0 .621l-2.13 8.165c0 .089-.089.178-.089.266-.089 0-.089.089-.266.089h-.887c-.089 0-.178 0-.178-.089q-.133 0 0-.266Z"/>
      <path data-name="Path 1342" d="m123.894 53.251-.888 3.284c0 .089-.089.178-.089.266a.4.4 0 0 1-.266.089h-.976c-.089 0-.177 0-.177-.089q-.133 0 0-.266l2.219-8.254a1.45 1.45 0 0 1 .266-.533 1.03 1.03 0 0 1 .621-.178h3.018a3.3 3.3 0 0 1 1.065.178 1.38 1.38 0 0 1 .71.533 3.6 3.6 0 0 1 .444.8 2.16 2.16 0 0 1 0 1.065 2.3 2.3 0 0 1-.266.976 6.6 6.6 0 0 1-.621 1.065 2.7 2.7 0 0 1-1.154.8 4.8 4.8 0 0 1-1.775.355h-2.13Zm1.154-4.26-.8 2.929h1.864a2.26 2.26 0 0 0 1.42-.444 2.1 2.1 0 0 0 .621-1.243v-.444c0-.177-.089-.266-.177-.444a1.2 1.2 0 0 0-.355-.266 1.5 1.5 0 0 0-.71-.089Z"/>
      <path data-name="Path 1343" d="M135.876 47.394a2.77 2.77 0 0 1 2.4.976 4 4 0 0 1 .533 2.663 6.9 6.9 0 0 1-.621 2.308 5.1 5.1 0 0 1-1.154 1.864 4.34 4.34 0 0 1-1.6 1.243 4.9 4.9 0 0 1-2.041.444 2.96 2.96 0 0 1-2.4-.888 4 4 0 0 1-.533-2.663 7.82 7.82 0 0 1 1.955-4.347 4.9 4.9 0 0 1 1.6-1.154 3.6 3.6 0 0 1 1.861-.446m-.355 1.42a2.14 2.14 0 0 0-1.331.355 5 5 0 0 0-.976.976 7 7 0 0 0-.71 1.42 10 10 0 0 0-.355 1.6 3 3 0 0 0 0 .888 1 1 0 0 0 .266.71.9.9 0 0 0 .533.444 2.6 2.6 0 0 0 .888.178 2.14 2.14 0 0 0 1.331-.355 11 11 0 0 0 1.065-.976 7 7 0 0 0 .71-1.42 10 10 0 0 0 .355-1.6v-.888a1 1 0 0 0-.266-.71 1.3 1.3 0 0 0-.533-.444 2.7 2.7 0 0 0-.977-.178"/>
      <path data-name="Path 1344" d="m145.905 49.435-1.065 2.219-2.13 4.438a1.4 1.4 0 0 1-.355.533.75.75 0 0 1-.533.177h-.621a1.1 1.1 0 0 1-.533-.089.75.75 0 0 1-.177-.533l.444-8.431c0-.178.089-.178.178-.178h1.42a.3.3 0 0 1 .089.178l-.444 4.793-.177 2.219h.09l.976-2.219 2.041-4.26a1.4 1.4 0 0 1 .355-.533 1.3 1.3 0 0 1 .621-.178h.621a.52.52 0 0 1 .444.178c.089.089.089.266.089.533l-.266 4.349-.178 2.219h.089l.976-2.219 2.041-4.7c.089-.178.178-.266.355-.266h1.331c.089 0 .177.089.089.178l-3.995 8.428a1.4 1.4 0 0 1-.355.533 1.1 1.1 0 0 1-.533.089h-.621a.68.68 0 0 1-.444-.178c-.089-.089-.089-.266-.089-.533l.266-4.438z"/>
      <path data-name="Path 1345" d="M157.088 56.712c-.089.089-.089.089-.266.089h-3.728a3.3 3.3 0 0 1-1.065-.177.8.8 0 0 1-.533-.533 1.7 1.7 0 0 1-.178-.71 4 4 0 0 1 .178-.888l1.243-4.522a3.7 3.7 0 0 1 .355-.888 2.1 2.1 0 0 1 .533-.8 3.1 3.1 0 0 1 .8-.533 4 4 0 0 1 1.154-.178h3.638c.089 0 .178 0 .178.089v.266l-.178.8c0 .089-.089.178-.089.266a.4.4 0 0 1-.266.089h-3.285c-.355 0-.621.089-.71.266a1.43 1.43 0 0 0-.355.621l-.355 1.42h3.905c.089 0 .177 0 .177.089v.266l-.177.71c0 .089-.089.178-.089.266s-.089.089-.177.089h-3.905l-.533 1.953c-.089.266-.089.533.089.621a1.03 1.03 0 0 0 .621.178h3.55c.089 0 .178 0 .178.089v.266l-.178.8c-.443-.181-.532-.092-.532-.004"/>
      <path data-name="Path 1346" d="M160.545 56.535c0 .089-.089.178-.089.266-.089 0-.089.089-.266.089h-.976c-.089 0-.177 0-.177-.089 0 0-.089-.089 0-.266l2.219-8.254a1.45 1.45 0 0 1 .266-.533 1.03 1.03 0 0 1 .621-.178h3.018a2.17 2.17 0 0 1 1.775.621 2.13 2.13 0 0 1 .444 1.686 3.26 3.26 0 0 1-.71 1.686 3.4 3.4 0 0 1-1.42.976v.089a.78.78 0 0 1 .621.533 2.6 2.6 0 0 1 .178.8v2.929c0 .089-.089.089-.178.089h-1.326c-.089 0-.089-.089-.089-.178v-2.485a1.1 1.1 0 0 0-.355-.976 1.6 1.6 0 0 0-.976-.266h-1.686Zm1.243-4.97h1.864a2.5 2.5 0 0 0 .8-.089c.178-.089.444-.178.533-.355a1.13 1.13 0 0 0 .355-.533 1.3 1.3 0 0 0 .177-.621v-.355a.67.67 0 0 0-.177-.355 1.2 1.2 0 0 0-.355-.266 1.3 1.3 0 0 0-.621-.089h-1.953Z"/>
      <path data-name="Path 1347" d="M169.154 56.713a.4.4 0 0 1-.266.089h-.976a.33.33 0 0 1-.266-.089s-.089-.089 0-.266l2.308-8.7c0-.089.089-.178.177-.266.089 0 .178-.089.266-.089h.976c.089 0 .177 0 .177.089v.266l-2.308 8.7c.005.177.005.266-.088.266"/>
      <path data-name="Path 1348" d="m175.016 49.794-1.779 6.741c0 .089-.089.178-.089.266a.4.4 0 0 1-.266.089h-.976c-.089 0-.178 0-.178-.089 0 0-.089-.089 0-.266l2.13-8.165a1.43 1.43 0 0 1 .355-.621 1.3 1.3 0 0 1 .621-.178h.444a.67.67 0 0 1 .444.089 2 2 0 0 1 .266.444l1.42 4.526.533 1.864h.089l1.775-6.745c0-.089.089-.178.089-.266.089 0 .178-.089.266-.089h.977c.089 0 .178 0 .178.089v.266l-2.13 8.165a4.3 4.3 0 0 1-.266.621.75.75 0 0 1-.621.177h-.71a.3.3 0 0 1-.178-.089c-.089 0-.089-.089-.089-.177s-.089-.178-.089-.266l-1.42-4.7-.8-1.686Z"/>
      <path data-name="Path 1349" d="M187.796 52.186c0-.089.089-.178.178-.266.089 0 .177-.089.266-.089h.888c.089 0 .178 0 .178.089v.266l-.888 3.55c0 .089-.089.178-.089.266-.089.089-.089.178-.266.178a2.7 2.7 0 0 1-.888.355 2.6 2.6 0 0 1-.888.178c-.355 0-.533.089-.8.089h-.534a3.15 3.15 0 0 1-2.574-.976 3.92 3.92 0 0 1-.526-2.841 9.5 9.5 0 0 1 .621-2.4 5.1 5.1 0 0 1 1.154-1.775 4.1 4.1 0 0 1 1.6-1.154 4.6 4.6 0 0 1 1.864-.355 6.3 6.3 0 0 1 1.243.089 3 3 0 0 1 1.243.444.087.087 0 0 1 .089.089.33.33 0 0 1-.089.266l-.444.71c-.089.089-.089.178-.178.178h-.178a3.4 3.4 0 0 0-.888-.266 3.3 3.3 0 0 0-.888-.089 2.4 2.4 0 0 0-1.42.355 2.8 2.8 0 0 0-1.065.976 6.3 6.3 0 0 0-.71 1.331 10 10 0 0 0-.355 1.6 3.6 3.6 0 0 0 0 .976 1 1 0 0 0 .266.71 1.9 1.9 0 0 0 .621.533 3.2 3.2 0 0 0 .976.178h.621a.8.8 0 0 0 .444-.089 4 4 0 0 0 .444-.089Z"/>
      <path data-name="Path 1350" d="m196.76 53.251-.887 3.284c0 .089-.089.178-.089.266a.4.4 0 0 1-.266.089h-.976c-.089 0-.178 0-.178-.089 0 0-.089-.089 0-.266l2.219-8.254a1.45 1.45 0 0 1 .266-.533 1.03 1.03 0 0 1 .621-.178h3.018a3.3 3.3 0 0 1 1.065.178 1.38 1.38 0 0 1 .71.533 3.6 3.6 0 0 1 .444.8 2.16 2.16 0 0 1 0 1.065 2.3 2.3 0 0 1-.266.976 6.6 6.6 0 0 1-.621 1.065 2.7 2.7 0 0 1-1.154.8 4.8 4.8 0 0 1-1.775.355h-2.13Zm1.154-4.26-.8 2.929h1.864a2.26 2.26 0 0 0 1.42-.444 2.1 2.1 0 0 0 .621-1.243v-.444c0-.177-.089-.266-.178-.444a1.2 1.2 0 0 0-.355-.266 1.5 1.5 0 0 0-.71-.089Z"/>
      <path data-name="Path 1351" d="M208.919 56.712c-.089.089-.089.089-.266.089h-3.728a3.3 3.3 0 0 1-1.065-.177.8.8 0 0 1-.532-.533 1.7 1.7 0 0 1-.178-.71 4 4 0 0 1 .178-.888l1.242-4.522a3.7 3.7 0 0 1 .355-.888 2.1 2.1 0 0 1 .533-.8 3.1 3.1 0 0 1 .8-.533 4 4 0 0 1 1.154-.178h3.638c.089 0 .177 0 .177.089v.266l-.177.8c0 .089-.089.178-.089.266a.4.4 0 0 1-.266.089h-3.285c-.355 0-.621.089-.71.266a1.43 1.43 0 0 0-.355.621l-.355 1.42h3.905c.089 0 .178 0 .178.089v.266l-.178.71c0 .089-.089.178-.089.266s-.089.089-.178.089h-3.905l-.533 1.953c-.089.266-.089.533.089.621a1.03 1.03 0 0 0 .621.178h3.55c.089 0 .177 0 .177.089v.266l-.177.8c-.442-.181-.442-.092-.531-.004"/>
      <path data-name="Path 1352" d="M216.729 47.394a2.77 2.77 0 0 1 2.4.976 4 4 0 0 1 .533 2.663 6.9 6.9 0 0 1-.621 2.308 5.1 5.1 0 0 1-1.154 1.864 4.34 4.34 0 0 1-1.6 1.243 4.9 4.9 0 0 1-2.041.444 2.96 2.96 0 0 1-2.4-.888 4 4 0 0 1-.533-2.663 7.82 7.82 0 0 1 1.955-4.347 4.9 4.9 0 0 1 1.6-1.154 3.6 3.6 0 0 1 1.861-.446m-.266 1.42a2.14 2.14 0 0 0-1.331.355 5 5 0 0 0-.976.976 7 7 0 0 0-.71 1.42 10 10 0 0 0-.355 1.6 3 3 0 0 0 0 .888 1 1 0 0 0 .266.71.9.9 0 0 0 .533.444 2.6 2.6 0 0 0 .888.178 2.14 2.14 0 0 0 1.331-.355 11 11 0 0 0 1.065-.976 7 7 0 0 0 .71-1.42 10 10 0 0 0 .355-1.6v-.888a1 1 0 0 0-.266-.71 1.3 1.3 0 0 0-.533-.444 3.8 3.8 0 0 0-.977-.178"/>
      <path data-name="Path 1353" d="m222.764 53.251-.888 3.284c0 .089-.089.178-.089.266a.4.4 0 0 1-.266.089h-.976c-.089 0-.177 0-.177-.089 0 0-.089-.089 0-.266l2.219-8.254a1.4 1.4 0 0 1 .266-.533 1.03 1.03 0 0 1 .621-.178h3.018a3.3 3.3 0 0 1 1.065.178 1.38 1.38 0 0 1 .71.533 3.6 3.6 0 0 1 .444.8 2.16 2.16 0 0 1 0 1.065 2.3 2.3 0 0 1-.266.976 6.6 6.6 0 0 1-.621 1.065 2.7 2.7 0 0 1-1.154.8 4.8 4.8 0 0 1-1.775.355h-2.13Zm1.154-4.26-.8 2.929h1.864a2.26 2.26 0 0 0 1.42-.444 2.1 2.1 0 0 0 .621-1.243v-.444c0-.177-.089-.266-.177-.444a1.2 1.2 0 0 0-.355-.266 1.5 1.5 0 0 0-.71-.089Z"/>
      <path data-name="Path 1354" d="M229.865 56.624a.8.8 0 0 1-.533-.533 1.7 1.7 0 0 1-.178-.71 3.3 3.3 0 0 1 .089-.888l1.775-6.745c0-.089.089-.178.089-.266.089 0 .177-.089.266-.089h.976a.33.33 0 0 1 .266.089v.266l-1.775 6.568c-.089.355-.089.533.089.71.089.178.355.178.621.178h3.461c.089 0 .178 0 .178.089v.178l-.266.888a.314.314 0 0 1-.266.266h-3.639a1.67 1.67 0 0 1-1.153-.001"/>
      <path data-name="Path 1355" d="M242.556 56.712c-.089.089-.089.089-.266.089h-3.728a3.3 3.3 0 0 1-1.065-.177.8.8 0 0 1-.532-.533 1.7 1.7 0 0 1-.178-.71 4 4 0 0 1 .178-.888l1.242-4.522a3.7 3.7 0 0 1 .355-.888 2.1 2.1 0 0 1 .533-.8 3.1 3.1 0 0 1 .8-.533 4 4 0 0 1 1.154-.178h3.638c.089 0 .178 0 .178.089v.266l-.178.8c0 .089-.089.178-.089.266a.4.4 0 0 1-.266.089h-3.285c-.355 0-.621.089-.71.266a1.43 1.43 0 0 0-.355.621l-.355 1.42h3.905c.089 0 .178 0 .178.089v.266l-.178.71c0 .089-.089.178-.089.266s-.089.089-.177.089h-3.905l-.533 1.953c-.089.266-.089.533.089.621a1.03 1.03 0 0 0 .621.178h3.55c.089 0 .177 0 .177.089v.266l-.177.8c-.443-.181-.532-.092-.532-.004"/>
    </g>
    <path data-name="Path 1356" d="M93.452 23.431c-3.461-4.349-8.165-6.479-13.135-8.076a45.3 45.3 0 0 0-8.343-1.869c-2.485-.266-4.97-.533-7.455-.71s-4.881-.266-7.366-.266c-2.574 0-5.236.178-7.81.355a60 60 0 0 0-15.8 3.106 22.8 22.8 0 0 0-6.479 3.461 12.6 12.6 0 0 0-2.131 2.224 4.815 4.815 0 0 0 .266 5.946 15.5 15.5 0 0 0 3.734 3.461c.178.089.8.444.8.444-.533-.089-1.154-.266-1.686-.355a36.2 36.2 0 0 1-10.384-4.083 15.2 15.2 0 0 1-4.438-3.816c-2.4-3.106-2.13-6.568.178-9.5a19.3 19.3 0 0 1 6.83-5.144 42.3 42.3 0 0 1 11.625-3.723c2.574-.444 5.236-.8 7.9-1.154a77 77 0 0 1 12.775-.359 63.8 63.8 0 0 1 23.346 4.792 38.3 38.3 0 0 1 13.135 9.053 21.6 21.6 0 0 1 3.995 5.768c.266 0 .355.178.443.445" fill="#62bc46"/>
    <path data-name="Path 1357" d="M14.818 10.562a10.92 10.92 0 0 0-4.349 5.414 8.58 8.58 0 0 0 1.6 8.786 19.3 19.3 0 0 0 6.479 4.793 51.9 51.9 0 0 0 14.112 4.26 71.6 71.6 0 0 0 11.536 1.153 74 74 0 0 0 11.715-.355 37.2 37.2 0 0 0 9.318-2.045 13 13 0 0 0 4.438-2.485 5.3 5.3 0 0 0 1.686-2.663 4 4 0 0 0 .177-.71c.621 3.994-.8 7.011-3.55 9.585a23.1 23.1 0 0 1-9.674 4.793 60 60 0 0 1-8.875 1.686 101 101 0 0 1-14.644.533c-3.018-.178-6.035-.355-9.053-.8a44.9 44.9 0 0 1-17.75-6.035 17.9 17.9 0 0 1-6.3-6.035 10 10 0 0 1 .444-11.715 21 21 0 0 1 5.325-5.148 49.6 49.6 0 0 1 13.134-6.206c-.177-.179-3.991 1.862-5.769 3.194" fill="#b5b7b5"/>
    <path data-name="Path 1358" d="M46.325 14.644c1.065-.178 2.308-.444 3.55-.533 2.4-.178 4.793-.355 7.189-.444 2.308 0 4.526.178 6.834.266a39 39 0 0 1 4.526.444c2.13.266 4.349.71 6.479 1.065a46.5 46.5 0 0 1 9.674 2.84 17.9 17.9 0 0 1 6.035 3.816c2.663 2.663 2.929 5.858.71 8.964a18.1 18.1 0 0 1-6.124 5.148 57.5 57.5 0 0 1-13.49 5.5c-3.018.8-6.124 1.509-9.23 2.13-2.751.533-5.591.71-8.343 1.065a52.4 52.4 0 0 1-8.343.178 11 11 0 0 1-1.686-.266c1.509-.178 3.018-.266 4.526-.533 2.4-.355 4.793-.8 7.1-1.331a37.6 37.6 0 0 0 11.36-4.349c2.485-1.509 4.793-3.373 5.858-6.213a9.54 9.54 0 0 0-1.42-10.3c-1.775-2.219-4.26-3.461-6.834-4.526a35.6 35.6 0 0 0-8.964-2.13c-3.195-.347-6.301-.524-9.407-.791" fill="#99ca3c"/>
    <g data-name="Group 934" fill="#373a36">
      <path data-name="Path 1359" d="M109.606 41.979h-4.26c-.71 0-1.065-.178-.976-.976l3.901-27.868c.089-.8.444-.976 1.154-.976h4.26c.888 0 1.065.089.976.976l-3.905 27.868c-.085.888-.352.976-1.15.976m7.278-38.164a4.84 4.84 0 0 1-4.615 4.7 3.316 3.316 0 0 1-3.373-3.373 4.8 4.8 0 0 1 4.615-4.787 3.286 3.286 0 0 1 3.372 3.461Z"/>
      <path data-name="Path 1360" d="m128.776 17.484-3.284 23.519c-.089.888-.355.976-1.154.976h-4.26c-.71 0-1.065-.178-.976-.976l3.373-24.318c.355-2.751 1.686-4.26 4.349-4.7a57 57 0 0 1 7.1-.533c9.763 0 13.757 3.994 12.248 14.555l-2.13 15c-.089.888-.355.976-1.154.976h-4.26c-.71 0-1.065-.178-.976-.976l2.13-15.088c.8-5.946-.266-8.786-6.745-8.786-.799.085-2.219.085-4.261.351"/>
      <path data-name="Path 1361" d="M159.396 41.359a1.645 1.645 0 0 1-1.154 1.42l-4.7 1.6c-.71.266-1.154-.089-1.065-.976l3.812-26.096h-3.994c-.71 0-.8-.355-.71-.888l.266-2.13c.089-.71.266-.976 1.065-1.154l4.083-.976.355-2.308C158.064 4.526 160.989 0 169.78 0a34.5 34.5 0 0 1 8.786 1.243c.533.178.533.533.355 1.154l-.8 3.284c-.178.621-.533.71-1.154.621a43.4 43.4 0 0 0-6.834-.8c-4.793 0-6.035 2.219-6.3 4.526l-.355 2.308h16.153c.888 0 1.065.266.888.976l-3.905 27.868c-.089.888-.355.976-1.154.976h-4.349c-.71 0-1.065-.178-.888-.976l3.284-23.7h-10.828Z"/>
      <path data-name="Path 1362" d="m193.565 17.484-3.284 23.519c-.089.888-.355.976-1.154.976h-4.26c-.71 0-1.065-.178-.976-.976l3.373-24.318c.355-2.751 1.686-4.26 4.349-4.7a57 57 0 0 1 7.1-.533c9.763 0 13.757 3.994 12.248 14.555l-2.13 15c-.089.888-.355.976-1.154.976h-4.26c-.71 0-1.065-.178-.976-.976l2.13-15.088c.8-5.946-.266-8.786-6.745-8.786-.799.085-2.219.085-4.261.351"/>
      <path data-name="Path 1363" d="M222.233 41.979h-4.26c-.71 0-1.065-.178-.976-.976l3.901-27.868c.089-.8.444-.976 1.154-.976h4.26c.888 0 1.065.089.976.976l-3.905 27.868c-.085.888-.263.976-1.15.976m7.278-38.164a4.84 4.84 0 0 1-4.615 4.7 3.316 3.316 0 0 1-3.373-3.373 4.8 4.8 0 0 1 4.615-4.787 3.238 3.238 0 0 1 3.372 3.461Z"/>
      <path data-name="Path 1364" d="M248.859 41.802a25 25 0 0 1-7.011.888c-6.035 0-7.988-2.574-7.189-8.076l2.485-17.307h-3.909c-.888 0-.8-.355-.71-.976l.355-2.308c.089-.71.266-.888 1.065-1.065l4.349-.976 1.509-5.325a1.7 1.7 0 0 1 1.331-1.42l3.376-1.152c.533-.089.976.089.888.888l-1.063 7.186h6.39c.8 0 .887.355.8.888l-.444 3.2c-.089.71-.266.976-1.065.976h-6.481l-2.308 16.508c-.355 2.4.533 3.2 2.84 3.2 1.065 0 3.018-.266 4.083-.355.71-.089.888.178.888.71l.533 3.55c-.002.349.086.611-.712.966"/>
      <path data-name="Path 1365" d="M281.519 12.159c.533 0 .71.266.444.71l-15.709 34.347c-2.4 5.059-4.97 7.1-9.674 7.1-2.308 0-2.663 0-4.793-.089-.976-.178-1.331.355-1.42-.355l.71-4.881c.089-.355.266-.266 1.242-.266h3.816c2.485 0 3.55-.976 4.793-3.816l1.687-3.55h-1.065c-1.331 0-2.041-.178-2.485-2.308l-4.527-26.092c-.089-.533.178-.8.621-.8h4.793c.71 0 .976.178 1.065.71l1.95 13.047 1.42 10.3h.355l4.525-10.389 5.773-12.868c.266-.533.444-.8 1.154-.8z"/>
    </g>
    <g data-name="Group 935" fill="#b2b3b3">
      <path data-name="Path 1366" d="M287.465 13.137h-1.331l-.621 4.171a.19.19 0 0 1-.178.178h-.533c-.089 0-.177 0-.177-.178l.621-4.171h-1.331c-.089 0-.089 0-.089-.089l.089-.533c0-.089 0-.178.177-.178h3.461c.089 0 .089 0 .089.178l-.089.533c.089-.001.089.089-.088.089"/>
      <path data-name="Path 1367" d="m292.168 13.935-.533.976-.888 1.6c-.089.266-.178.355-.444.355h-.261c-.266 0-.266-.089-.355-.355l-.444-1.509-.266-.976-.444 3.284a.19.19 0 0 1-.178.178h-.533c-.089 0-.178 0-.178-.178l.621-4.438a.42.42 0 0 1 .444-.444h.266c.266 0 .355.089.355.355l.533 2.13.266 1.154.621-1.154 1.154-2.13c.177-.266.266-.355.533-.355h.266c.266 0 .355.089.355.444l-.621 4.438a.19.19 0 0 1-.178.178h-.533c-.089 0-.178 0-.178-.178Z"/>
    </g>
  </g>
</svg>
