<svg xmlns="http://www.w3.org/2000/svg" width="338" height="52" viewBox="0 0 338 52">
  <g id="Group_1085" data-name="Group 1085" transform="translate(-18.5 -368)">
    <line id="Line_32" data-name="Line 32" x2="338" transform="translate(18.5 394.5)" fill="none" stroke="#ddd" stroke-width="1"/>
    <g id="Group_1060" data-name="Group 1060" transform="translate(-12 -115)">
      <g id="Ellipse_4" data-name="Ellipse 4" transform="translate(174 483)" fill="#eee" stroke="#ddd" stroke-width="1">
        <circle cx="26" cy="26" r="26" stroke="none"/>
        <circle cx="26" cy="26" r="25.5" fill="none"/>
      </g>
      <path id="Path_1380" data-name="Path 1380" d="M.156-5.727A6.2,6.2,0,0,1-1.25-1.367,5.213,5.213,0,0,1-5.281.156,5.213,5.213,0,0,1-9.312-1.367a6.222,6.222,0,0,1-1.406-4.375A6.137,6.137,0,0,1-9.309-10.1a5.273,5.273,0,0,1,4.043-1.5,5.2,5.2,0,0,1,4.027,1.516A6.214,6.214,0,0,1,.156-5.727Zm-8.336,0a4.771,4.771,0,0,0,.727,2.883,2.542,2.542,0,0,0,2.172.969q2.9,0,2.9-3.852T-5.266-9.586a2.559,2.559,0,0,0-2.18.973A4.751,4.751,0,0,0-8.18-5.727ZM4.945-6.352h.781a2.989,2.989,0,0,0,1.7-.383,1.366,1.366,0,0,0,.547-1.2A1.25,1.25,0,0,0,7.41-9.094a3.39,3.39,0,0,0-1.73-.344H4.945Zm0,1.969V0H2.523V-11.422H5.852a5.7,5.7,0,0,1,3.445.848A3.025,3.025,0,0,1,10.414-8a3.03,3.03,0,0,1-.555,1.793,3.67,3.67,0,0,1-1.57,1.23Q10.867-1.125,11.648,0H8.961L6.234-4.383Z" transform="translate(200 515)" fill="#95989a"/>
    </g>
  </g>
</svg>
