<svg xmlns="http://www.w3.org/2000/svg" width="34.312" height="31.673" viewBox="0 0 34.312 31.673">
  <g id="printing-tool" transform="translate(0 -18.271)">
    <path id="Path_1372" data-name="Path 1372" d="M33.148,32.633a3.811,3.811,0,0,0-2.794-1.165H29.034V26.189a5.5,5.5,0,0,0-1.4-3.382L24.5,19.673a5.487,5.487,0,0,0-3.381-1.4H7.259a1.971,1.971,0,0,0-1.98,1.979V31.468H3.959a3.811,3.811,0,0,0-2.794,1.165A3.811,3.811,0,0,0,0,35.427v8.578a.635.635,0,0,0,.2.464.635.635,0,0,0,.464.2H5.279v3.3a1.971,1.971,0,0,0,1.98,1.98h19.8a1.971,1.971,0,0,0,1.98-1.98v-3.3h4.619a.668.668,0,0,0,.659-.66V35.427A3.81,3.81,0,0,0,33.148,32.633ZM26.394,47.3H7.918V42.026H26.394Zm0-13.2H7.918V20.91h13.2v3.3a1.971,1.971,0,0,0,1.98,1.979h3.3v7.918Zm4.887,2.248a1.294,1.294,0,1,1,.392-.928A1.269,1.269,0,0,1,31.282,36.355Z" transform="translate(0)" fill="#95989a"/>
  </g>
</svg>
