<svg xmlns="http://www.w3.org/2000/svg" width="37.405" height="29.924" viewBox="0 0 37.405 29.924">
  <g id="Group_1061" data-name="Group 1061" transform="translate(-90 -588)">
    <g id="Group_941" data-name="Group 941" transform="translate(90 588)">
      <g id="Group_940" data-name="Group 940">
        <path id="Path_1368" data-name="Path 1368" d="M6.234,48H1.247A1.247,1.247,0,0,0,0,49.247v4.987a1.247,1.247,0,1,0,2.494,0v-3.74h3.74a1.247,1.247,0,0,0,0-2.494Z" transform="translate(0 -48)" fill="#fff"/>
      </g>
    </g>
    <g id="Group_943" data-name="Group 943" transform="translate(119.924 610.443)">
      <g id="Group_942" data-name="Group 942">
        <path id="Path_1369" data-name="Path 1369" d="M390.234,336a1.247,1.247,0,0,0-1.247,1.247v3.74h-3.74a1.247,1.247,0,1,0,0,2.494h4.987a1.247,1.247,0,0,0,1.247-1.247v-4.987A1.247,1.247,0,0,0,390.234,336Z" transform="translate(-384 -336)" fill="#fff"/>
      </g>
    </g>
    <g id="Group_945" data-name="Group 945" transform="translate(119.924 588)">
      <g id="Group_944" data-name="Group 944">
        <path id="Path_1370" data-name="Path 1370" d="M390.234,48h-4.987a1.247,1.247,0,1,0,0,2.494h3.74v3.74a1.247,1.247,0,1,0,2.494,0V49.247A1.247,1.247,0,0,0,390.234,48Z" transform="translate(-384 -48)" fill="#fff"/>
      </g>
    </g>
    <g id="Group_947" data-name="Group 947" transform="translate(90 610.443)">
      <g id="Group_946" data-name="Group 946">
        <path id="Path_1371" data-name="Path 1371" d="M6.234,340.987H2.494v-3.74a1.247,1.247,0,1,0-2.494,0v4.987a1.247,1.247,0,0,0,1.247,1.247H6.234a1.247,1.247,0,0,0,0-2.494Z" transform="translate(0 -336)" fill="#fff"/>
      </g>
    </g>
    <g id="Group_949" data-name="Group 949" transform="translate(95.116 592.726)">
      <g id="Group_948" data-name="Group 948" transform="translate(0 0)">
        <rect id="Rectangle_360" data-name="Rectangle 360" width="2.306" height="19.988" fill="#fff"/>
      </g>
    </g>
    <g id="Group_951" data-name="Group 951" transform="translate(99.729 592.726)">
      <g id="Group_950" data-name="Group 950" transform="translate(0 0)">
        <rect id="Rectangle_361" data-name="Rectangle 361" width="3.075" height="15.376" fill="#fff"/>
      </g>
    </g>
    <g id="Group_953" data-name="Group 953" transform="translate(105.11 592.726)">
      <g id="Group_952" data-name="Group 952" transform="translate(0 0)">
        <rect id="Rectangle_362" data-name="Rectangle 362" width="2.306" height="15.376" fill="#fff"/>
      </g>
    </g>
    <g id="Group_955" data-name="Group 955" transform="translate(109.723 592.726)">
      <g id="Group_954" data-name="Group 954" transform="translate(0 0)">
        <rect id="Rectangle_363" data-name="Rectangle 363" width="2.306" height="19.988" fill="#fff"/>
      </g>
    </g>
    <g id="Group_957" data-name="Group 957" transform="translate(115.104 592.726)">
      <g id="Group_956" data-name="Group 956" transform="translate(0 0)">
        <rect id="Rectangle_364" data-name="Rectangle 364" width="2.306" height="15.376" transform="translate(0)" fill="#fff"/>
      </g>
    </g>
    <g id="Group_959" data-name="Group 959" transform="translate(119.717 592.726)">
      <g id="Group_958" data-name="Group 958" transform="translate(0 0)">
        <rect id="Rectangle_365" data-name="Rectangle 365" width="2.306" height="19.988" transform="translate(0)" fill="#fff"/>
      </g>
    </g>
    <g id="Group_961" data-name="Group 961" transform="translate(99.729 610.407)">
      <g id="Group_960" data-name="Group 960" transform="translate(0 0)">
        <rect id="Rectangle_366" data-name="Rectangle 366" width="3.075" height="2.306" fill="#fff"/>
      </g>
    </g>
    <g id="Group_963" data-name="Group 963" transform="translate(105.11 610.407)">
      <g id="Group_962" data-name="Group 962" transform="translate(0 0)">
        <rect id="Rectangle_367" data-name="Rectangle 367" width="2.306" height="2.306" fill="#fff"/>
      </g>
    </g>
    <g id="Group_965" data-name="Group 965" transform="translate(115.104 610.407)">
      <g id="Group_964" data-name="Group 964" transform="translate(0 0)">
        <rect id="Rectangle_368" data-name="Rectangle 368" width="2.306" height="2.306" transform="translate(0)" fill="#fff"/>
      </g>
    </g>
  </g>
</svg>
