<svg xmlns="http://www.w3.org/2000/svg" width="29.821" height="29.813" viewBox="0 0 29.821 29.813">
  <g id="settings-gears" transform="translate(1.203 40.766)">
    <path id="Path_1375" data-name="Path 1375" d="M184.071,570.12a1.952,1.952,0,0,0-1.75,1.922l-.023,1.977a1.948,1.948,0,0,0,1.7,1.962l1.454.187a11.275,11.275,0,0,0,1.031,2.524l-.938,1.156a1.948,1.948,0,0,0,.117,2.594l1.383,1.414a1.951,1.951,0,0,0,2.594.18l1.164-.9a11.415,11.415,0,0,0,2.594,1.133l.156,1.5a1.952,1.952,0,0,0,1.922,1.75l1.977.023a1.948,1.948,0,0,0,1.961-1.7l.18-1.422a11.743,11.743,0,0,0,2.813-1.094l1.094.883a1.948,1.948,0,0,0,2.594-.117l1.414-1.383a1.951,1.951,0,0,0,.18-2.594l-.836-1.086a11.332,11.332,0,0,0,1.188-2.735l1.3-.133a1.952,1.952,0,0,0,1.75-1.922l.023-1.977a1.947,1.947,0,0,0-1.7-1.961l-1.266-.164a11.773,11.773,0,0,0-1.071-2.735l.789-.969a1.948,1.948,0,0,0-.117-2.594l-1.383-1.414a1.951,1.951,0,0,0-2.594-.18l-.946.727a11.494,11.494,0,0,0-2.844-1.235l-.125-1.227a1.952,1.952,0,0,0-1.922-1.75l-1.977-.023a1.948,1.948,0,0,0-1.962,1.7l-.156,1.219a11.8,11.8,0,0,0-2.946,1.2l-.977-.8a1.949,1.949,0,0,0-2.594.117l-1.422,1.391a1.951,1.951,0,0,0-.18,2.594l.836,1.078a11.438,11.438,0,0,0-1.117,2.735Zm12.761-2.235a5.142,5.142,0,1,1-5.2,5.079A5.147,5.147,0,0,1,196.832,567.885Z" transform="translate(-183 -599)" fill="#373a36" stroke="#ddd" stroke-width="1"/>
  </g>
</svg>
